<svg width="154" height="97" viewBox="0 0 154 97" fill="none" xmlns="http://www.w3.org/2000/svg">
<path d="M17.9187 18V4.53846H22.4672C23.5233 4.53846 24.3865 4.72908 25.057 5.11031C25.7318 5.48717 26.2314 5.99767 26.5556 6.64183C26.8799 7.28598 27.042 8.00463 27.042 8.79778C27.042 9.59092 26.8799 10.3118 26.5556 10.9603C26.2357 11.6088 25.7406 12.1259 25.0701 12.5115C24.3997 12.8928 23.5408 13.0834 22.4935 13.0834H19.2333V11.6373H22.4409C23.164 11.6373 23.7446 11.5124 24.1828 11.2627C24.621 11.0129 24.9387 10.6755 25.1359 10.2504C25.3374 9.82098 25.4382 9.33676 25.4382 8.79778C25.4382 8.25879 25.3374 7.77677 25.1359 7.35171C24.9387 6.92666 24.6188 6.59362 24.1762 6.35261C23.7336 6.10722 23.1464 5.98452 22.4146 5.98452H19.5488V18H17.9187ZM41.0261 11.2692C41.0261 12.689 40.7698 13.916 40.2571 14.9501C39.7444 15.9843 39.0411 16.7818 38.1471 17.3427C37.2532 17.9036 36.2322 18.184 35.0841 18.184C33.936 18.184 32.915 17.9036 32.0211 17.3427C31.1272 16.7818 30.4238 15.9843 29.9112 14.9501C29.3985 13.916 29.1421 12.689 29.1421 11.2692C29.1421 9.84946 29.3985 8.6225 29.9112 7.58834C30.4238 6.55419 31.1272 5.75666 32.0211 5.19576C32.915 4.63486 33.936 4.35442 35.0841 4.35442C36.2322 4.35442 37.2532 4.63486 38.1471 5.19576C39.0411 5.75666 39.7444 6.55419 40.2571 7.58834C40.7698 8.6225 41.0261 9.84946 41.0261 11.2692ZM39.4486 11.2692C39.4486 10.1036 39.2536 9.11985 38.8636 8.31795C38.478 7.51604 37.9543 6.90913 37.2927 6.49722C36.6353 6.08531 35.8992 5.87936 35.0841 5.87936C34.2691 5.87936 33.5307 6.08531 32.869 6.49722C32.2117 6.90913 31.6881 7.51604 31.2981 8.31795C30.9124 9.11985 30.7196 10.1036 30.7196 11.2692C30.7196 12.4348 30.9124 13.4186 31.2981 14.2205C31.6881 15.0224 32.2117 15.6293 32.869 16.0412C33.5307 16.4531 34.2691 16.6591 35.0841 16.6591C35.8992 16.6591 36.6353 16.4531 37.2927 16.0412C37.9543 15.6293 38.478 15.0224 38.8636 14.2205C39.2536 13.4186 39.4486 12.4348 39.4486 11.2692ZM46.2122 18L42.5313 4.53846H44.1877L47.001 15.5023H47.1325L49.9983 4.53846H51.8387L54.7046 15.5023H54.836L57.6493 4.53846H59.3057L55.6248 18H53.9421L50.9711 7.27283H50.8659L47.8949 18H46.2122ZM61.3368 18V4.53846H69.461V5.98452H62.9669V10.5331H69.0403V11.9791H62.9669V16.5539H69.5662V18H61.3368ZM72.3991 18V4.53846H76.9477C77.9993 4.53846 78.8626 4.71812 79.5374 5.07745C80.2123 5.43239 80.7118 5.92098 81.0361 6.54323C81.3603 7.16548 81.5225 7.87317 81.5225 8.66632C81.5225 9.45946 81.3603 10.1628 81.0361 10.7763C80.7118 11.3897 80.2145 11.8718 79.544 12.2223C78.8736 12.5685 78.0169 12.7416 76.974 12.7416H73.2931V11.2692H76.9214C77.64 11.2692 78.2184 11.1641 78.6566 10.9537C79.0992 10.7434 79.4191 10.4454 79.6163 10.0598C79.8179 9.6698 79.9187 9.2053 79.9187 8.66632C79.9187 8.12733 79.8179 7.65626 79.6163 7.25312C79.4147 6.84997 79.0927 6.53885 78.6501 6.31975C78.2075 6.09627 77.6225 5.98452 76.8951 5.98452H74.0292V18H72.3991ZM78.7355 11.9528L82.0483 18H80.1553L76.8951 11.9528H78.7355ZM84.2388 18V4.53846H92.363V5.98452H85.8689V10.5331H91.9424V11.9791H85.8689V16.5539H92.4682V18H84.2388ZM99.4553 18H95.3012V4.53846H99.6394C100.945 4.53846 102.063 4.80795 102.992 5.34694C103.921 5.88155 104.633 6.65059 105.128 7.65407C105.623 8.65317 105.871 9.84946 105.871 11.2429C105.871 12.6452 105.621 13.8524 105.121 14.8647C104.622 15.8725 103.894 16.6481 102.939 17.1915C101.984 17.7305 100.823 18 99.4553 18ZM96.9313 16.5539H99.3502C100.463 16.5539 101.386 16.3392 102.117 15.9098C102.849 15.4803 103.395 14.8691 103.754 14.0759C104.113 13.2828 104.293 12.3384 104.293 11.2429C104.293 10.1562 104.116 9.22064 103.761 8.43626C103.406 7.6475 102.875 7.04278 102.17 6.62211C101.464 6.19705 100.586 5.98452 99.5342 5.98452H96.9313V16.5539ZM113.811 18V4.53846H118.517C119.455 4.53846 120.228 4.70059 120.837 5.02486C121.446 5.34475 121.9 5.77638 122.198 6.31975C122.496 6.85874 122.645 7.45688 122.645 8.11418C122.645 8.69261 122.542 9.17025 122.336 9.5471C122.134 9.92395 121.867 10.2219 121.534 10.441C121.205 10.6601 120.848 10.8223 120.463 10.9274V11.0589C120.875 11.0852 121.289 11.2298 121.705 11.4927C122.121 11.7556 122.47 12.1325 122.75 12.6233C123.031 13.1141 123.171 13.7144 123.171 14.4243C123.171 15.0991 123.017 15.706 122.711 16.245C122.404 16.784 121.92 17.2112 121.258 17.5267C120.596 17.8422 119.735 18 118.675 18H113.811ZM115.441 16.5539H118.675C119.74 16.5539 120.496 16.348 120.943 15.9361C121.394 15.5198 121.62 15.0158 121.62 14.4243C121.62 13.9685 121.503 13.5479 121.271 13.1623C121.039 12.7723 120.708 12.4611 120.279 12.2289C119.849 11.9923 119.341 11.8739 118.754 11.8739H115.441V16.5539ZM115.441 10.4542H118.464C118.955 10.4542 119.398 10.3578 119.792 10.165C120.191 9.97215 120.507 9.70047 120.739 9.34991C120.975 8.99935 121.094 8.58744 121.094 8.11418C121.094 7.52261 120.888 7.02087 120.476 6.60896C120.064 6.19267 119.411 5.98452 118.517 5.98452H115.441V10.4542ZM124.692 4.53846H126.559L130.293 10.8223H130.45L134.184 4.53846H136.051L131.187 12.4524V18H129.556V12.4524L124.692 4.53846Z" fill="white"/>
<path d="M2.33221 35.8535H10.2099V65.2393H19.7979V71.7695H2.33221V35.8535ZM35.7978 45.0268C35.7978 43.2993 34.7613 42.4355 32.6882 42.4355C30.6497 42.4355 29.6304 43.2993 29.6304 45.0268V62.5962C29.6304 64.3237 30.6497 65.1875 32.6882 65.1875C34.7613 65.1875 35.7978 64.3237 35.7978 62.5962V45.0268ZM21.8564 44.6122C21.8564 41.779 22.772 39.5332 24.6032 37.8747C26.4344 36.1817 29.1294 35.3352 32.6882 35.3352C36.247 35.3352 38.942 36.1817 40.7732 37.8747C42.639 39.5332 43.5719 41.779 43.5719 44.6122V63.0108C43.5719 65.844 42.639 68.1071 40.7732 69.8001C38.942 71.4586 36.247 72.2878 32.6882 72.2878C29.1294 72.2878 26.4344 71.4586 24.6032 69.8001C22.772 68.1071 21.8564 65.844 21.8564 63.0108V44.6122ZM61.1546 45.0268C61.1546 43.2993 60.118 42.4355 58.0449 42.4355C56.0064 42.4355 54.9872 43.2993 54.9872 45.0268V62.5962C54.9872 64.3237 56.0064 65.1875 58.0449 65.1875C60.118 65.1875 61.1546 64.3237 61.1546 62.5962V45.0268ZM47.2131 44.6122C47.2131 41.779 48.1287 39.5332 49.9599 37.8747C51.7912 36.1817 54.4862 35.3352 58.0449 35.3352C61.6037 35.3352 64.2987 36.1817 66.1299 37.8747C67.9957 39.5332 68.9286 41.779 68.9286 44.6122V63.0108C68.9286 65.844 67.9957 68.1071 66.1299 69.8001C64.2987 71.4586 61.6037 72.2878 58.0449 72.2878C54.4862 72.2878 51.7912 71.4586 49.9599 69.8001C48.1287 68.1071 47.2131 65.844 47.2131 63.0108V44.6122ZM91.8495 35.8535V42.591H85.3711V71.7695H77.4934V42.591H71.015V35.8535H91.8495ZM102.221 58.8128V71.7695H94.4465V35.8535H106.159C108.993 35.8535 111.204 36.5272 112.793 37.8747C114.383 39.2222 115.177 41.1916 115.177 43.783V50.4168C115.177 54.563 113.761 57.1543 110.927 58.1909L116.577 71.7695H108.025L103.205 58.8128H102.221ZM102.221 42.4873V52.6454H105.278C106.073 52.6454 106.626 52.4726 106.937 52.1271C107.248 51.7816 107.403 51.177 107.403 50.3132V44.4567C107.403 43.6966 107.23 43.1783 106.885 42.9019C106.539 42.6255 106.004 42.4873 105.278 42.4873H102.221ZM119.449 35.8535H127.327V71.7695H119.449V35.8535ZM145.268 35.8535H153.664L145.942 53.8892L153.664 71.7695H145.217L141.9 61.9742L138.375 71.7695H129.928L137.598 53.8892L129.928 35.8535H138.324L141.9 45.7524L145.268 35.8535Z" fill="white"/>
<path d="M0 76.9522H153.924V79.5436H0V76.9522Z" fill="white"/>
</svg>
